# xmcd
#
# Track frame offsets: 
#        150
#        35323
#        50422
#        71068
#        86163
#        112402
#        128950
#        149755
#        170729
#        192106
#        225405
#        243542
#
# Disc length: 3760 seconds
#
# Revision: 0
# Processed by: cddbd v1.5.2PL0 Copyright (c) Steve Scherf et al.
# Submitted via: ExactAudioCopy v0.99pb4
#
DISCID=b60eae0c
DTITLE=Calvin Russell - The Last Call, In The Heat Of A Night
DYEAR=2011
DGENRE=Blues
TTITLE0=Freight Train Blues
TTITLE1=Texas Blues Again
TTITLE2=Halloween
TTITLE3=5m²
TTITLE4=Behind The 8 Ball
TTITLE5=Rats and Roaches
TTITLE6=Soldier
TTITLE7=Rolling Wheel
TTITLE8=Dawg Eat Dawg
TTITLE9=Are You Waiting
TTITLE10=Ain't Leaving Your Love
TTITLE11=Too Old To Grow Up Now
EXTD=
EXTT0=
EXTT1=
EXTT2=
EXTT3=
EXTT4=
EXTT5=
EXTT6=
EXTT7=
EXTT8=
EXTT9=
EXTT10=
EXTT11=
PLAYORDER=
